<?xml version="1.0" encoding="UTF-8"?>
<svg xmlns="http://www.w3.org/2000/svg" viewBox="0 0 300 300">
  <defs>
    <style>
      .cls-1 { fill: #99999a; }
      .cls-2 { fill: #8a8a8a; }
      .cls-3 { fill: #40444b; }
      .cls-4 { fill: #828383; }
      .cls-5 { opacity: .14; }
      .cls-6 { fill: #12161f; opacity: .8; }
    </style>
  </defs>
  <!-- White fill inside the ring -->
  <circle cx="150" cy="150" r="143.5" fill="#ffffff"/>
  <!-- Ring and internal paths from logo-mark-new.svg -->
  <path class="cls-5" d="m150,5.72c-1.94,0-3.87.05-5.8.13v288.3c1.92.08,3.86.13,5.8.13,1.48,0,2.95-.03,4.42-.07V5.8c-1.47-.04-2.94-.07-4.42-.07Z"/>
  <path class="cls-5" d="m168.45,6.9v286.19c.59-.07,1.17-.16,1.75-.24V7.14c-.58-.08-1.17-.17-1.75-.24Z"/>
  <path class="cls-3" d="m260.42,152.19c-28.63,2.24-54.15,15.56-80.42,26.23,1.93.72,3.88,1.41,5.86,2.09,12.47-5.38,24.8-11.15,37.36-16.03,12.77-4.84,26.09-8.37,39.73-9.35,10.46-.89,21.24-.35,31.04,3.7.06-.96.11-1.92.14-2.88-10.66-4.33-22.39-4.69-33.73-3.76Z"/>
  <path class="cls-2" d="m235.93,104.02c-21.24,2.18-38.77,10.48-55.83,20.48,1.61.73,3.22,1.44,4.83,2.14,20.68-11.96,41.08-20.38,69.94-19.47,6.13.29,12.28,1.16,18.33,2.4,5.72,1.22,11.52,2.72,16.76,5.31-.25-1-.51-1.99-.78-2.98-4.75-2.66-9.96-4.33-15.2-5.7-12.38-3.27-25.37-3.73-38.06-2.19Z"/>
  <path class="cls-2" d="m181.07,128.91c-1.6-.7-3.19-1.42-4.78-2.15-8.63,5.19-17.2,10.74-26.13,16.06-6.86,4.07-13.92,7.75-21.2,10.92,1.63.88,3.27,1.77,4.91,2.65,6.3-2.84,12.47-6.09,18.52-9.75,10.22-6.2,19.53-12.28,28.68-17.74Z"/>
  <path class="cls-4" d="m255.12,189.34c-16.86,1.4-34.05-.11-50.61-3.51-6.51-1.5-12.7-3.3-18.65-5.32-1.98-.67-3.93-1.37-5.86-2.09-16.82-6.28-31.71-14.24-46.13-22.03-1.64-.89-3.28-1.77-4.91-2.65-35.21-18.99-68.6-35.67-122.01-22.61-.17,1.29-.32,2.57-.46,3.87,5.8-1.32,11.58-2.41,17.44-3.17,39.99-5.87,69.92,7.96,99.94,24.03,1.67.89,3.33,1.79,5,2.69,14.42,7.8,29,15.9,44.85,22.36,1.92.78,3.86,1.54,5.82,2.27,5.5,2.05,11.16,3.89,17.03,5.43,19.15,5.06,39.25,7.58,59.01,5.29,11.72-1.4,23.42-3.69,34.29-8.42.3-1.19.59-2.39.86-3.6-5.55,2.16-11.37,3.7-17.26,4.87-6.06,1.2-12.2,2.01-18.35,2.58Z"/>
  <path class="cls-1" d="m18.1,107.83c7.92-4.56,16.58-7.79,25.46-9.98,23.85-5.69,49.17-3.64,72.6,3.09,20.94,6.13,40.26,16.75,60.13,25.82,1.59.73,3.18,1.44,4.78,2.15,12.5,5.5,25.28,10.21,38.89,12.66,24.47,4.92,49.99,2.7,73.72-4.71-.07-.76-.14-1.5-.22-2.26-23.61,6.64-48.73,8.55-72.84,3.59-12.45-2.33-24.21-6.56-35.7-11.54-1.62-.7-3.23-1.42-4.83-2.14-20.78-9.4-40.88-20.75-62.9-27.09-33.56-9.73-75.97-9.98-105.41,11.08-.44,1.46-.95,3.32-1.31,4.65,0,0,.11-.14.19-.2,2.37-1.85,4.82-3.59,7.44-5.11Z"/>
  <path class="cls-3" d="m26.95,184.59c5.88,1.56,11.77,3.29,17.7,4.94,29.7,8.64,61.37,12.56,92.01,6.94,14.91-2.51,29.03-7.52,42.89-13.28-1.96-.73-3.9-1.49-5.82-2.27-6.65,2.56-13.36,4.88-20.2,6.75-29.24,8.32-60.34,8.23-90,2.04-12.04-2.31-23.76-5.78-35.77-8.49-6.14-1.3-12.63-2.46-18.99-1.63.18.87.37,1.73.56,2.59h0c5.9-.44,11.87.97,17.62,2.42Z"/>
  <path class="cls-2" d="m61.53,171.04c23.59.5,46.14-3.72,67.35-12.49-1.67-.9-3.34-1.8-5-2.69-8.18,3.25-16.61,5.84-25.29,7.58-30.48,6.06-63.1,3.76-92.66-5.77.06,1.12.13,2.23.21,3.34h0c17.58,6.68,36.57,9.89,55.39,10.03Z"/>
  <!-- Ring on top -->
  <path class="cls-6" d="m299.5,150c0,82.57-66.93,149.5-149.5,149.5S.5,232.57.5,150,67.43.5,150,.5s149.5,66.93,149.5,149.5ZM150,5.72C70.32,5.72,5.72,70.32,5.72,150s64.6,144.28,144.28,144.28,144.28-64.6,144.28-144.28S229.68,5.72,150,5.72Z"/>
</svg>
